<?xml version="1.0" encoding="UTF-8"?>
<svg id="Layer_2" data-name="Layer 2" xmlns="http://www.w3.org/2000/svg" xmlns:xlink="http://www.w3.org/1999/xlink" viewBox="0 0 252.5 282.5">
  <defs>
    <style>
      .cls-1 {
        fill: url(#linear-gradient);
      }

      .cls-1, .cls-2, .cls-3, .cls-4, .cls-5, .cls-6 {
        stroke-width: 0px;
      }

      .cls-2 {
        fill: #fff;
      }

      .cls-3 {
        fill: url(#linear-gradient-2);
      }

      .cls-4 {
        fill: url(#linear-gradient-3);
      }

      .cls-5 {
        fill: #7dc247;
      }

      .cls-6 {
        fill: url(#linear-gradient-4);
      }
    </style>
    <linearGradient id="linear-gradient" x1="5.55" y1="71.54" x2="173.92" y2="71.54" gradientUnits="userSpaceOnUse">
      <stop offset="0" stop-color="#7dc247"/>
      <stop offset="1" stop-color="#32a248"/>
    </linearGradient>
    <linearGradient id="linear-gradient-2" x1="30" y1="163.43" x2="220.5" y2="163.43" xlink:href="#linear-gradient"/>
    <linearGradient id="linear-gradient-3" x1="155.67" y1="149.62" x2="180.5" y2="149.62" gradientUnits="userSpaceOnUse">
      <stop offset="0" stop-color="#33a248"/>
      <stop offset="1" stop-color="#7dc247"/>
    </linearGradient>
    <linearGradient id="linear-gradient-4" x1="41.5" y1="139" x2="145.97" y2="139" xlink:href="#linear-gradient-3"/>
  </defs>
  <g id="LetsCollabLogo">
    <g>
      <circle class="cls-5" cx="162" cy="14" r="14"/>
      <circle class="cls-5" cx="233" cy="191" r="14"/>
      <circle class="cls-2" cx="15" cy="157" r="15"/>
      <path class="cls-1" d="M110,48.5c18.14,0,35.05,5.37,49.22,14.59l14.69-14.19c-18.06-12.85-40.12-20.41-63.92-20.41-46.27,0-88,29.19-103.84,72.65-1.89,5.19.78,10.93,5.97,12.82,5.19,1.89,10.93-.78,12.82-5.97,12.98-35.59,47.16-59.5,85.05-59.5Z"/>
      <path class="cls-3" d="M201.64,77.36l-14.46,14.46c8.44,13.75,13.31,29.91,13.31,47.19,0,49.9-40.6,90.5-90.5,90.5-23.67,0-46.05-9.08-63.03-25.56-3.96-3.85-10.29-3.75-14.14.21s-3.75,10.29.21,14.14c20.73,20.12,48.06,31.21,76.96,31.21,60.93,0,110.5-49.57,110.5-110.5,0-22.81-6.96-44.02-18.86-61.64Z"/>
      <g>
        <path class="cls-2" d="M177.87,189.27l-39.44-40.85c1.01-2.95,1.57-6.12,1.57-9.41,0-3.57-.65-6.98-1.82-10.14l64.38-63.11c3.1,1.13,6.45,1.75,9.94,1.75,16.02,0,29-12.98,29-29s-12.98-29-29-29-29,12.98-29,29c0,3.29.56,6.45,1.56,9.39l-64.88,63.6c-2.89-.96-5.97-1.49-9.18-1.49-16.02,0-29,12.98-29,29s12.98,29,29,29c3.48,0,6.82-.61,9.91-1.74l39.14,40.54c6.79-4.91,12.79-10.83,17.82-17.53Z"/>
        <path class="cls-2" d="M223.5,224.5c-3.49,0-6.83.62-9.92,1.74l-13.75-14.24c-5.31,6.45-11.3,12.32-17.87,17.48l14.11,14.62c-1.01,2.95-1.57,6.11-1.57,9.4,0,16.02,12.98,29,29,29s29-12.98,29-29-12.98-29-29-29Z"/>
      </g>
      <g>
        <path class="cls-4" d="M160.5,139c0,7.62-1.74,14.85-4.83,21.31l14.63,14.89c6.46-10.55,10.2-22.95,10.2-36.2,0-1.93-.08-3.88-.24-5.79-.45-5.5-5.29-9.6-10.79-9.14-5.5.45-9.6,5.29-9.14,10.79.11,1.37.17,2.76.17,4.14Z"/>
        <path class="cls-6" d="M131.75,183.92c-6.32,2.93-13.34,4.58-20.75,4.58-27.29,0-49.5-22.21-49.5-49.5s22.21-49.5,49.5-49.5c5.52,0,10-4.48,10-10s-4.48-10-10-10c-38.32,0-69.5,31.18-69.5,69.5s31.18,69.5,69.5,69.5c12.74,0,24.69-3.46,34.97-9.48l-14.22-15.1Z"/>
      </g>
    </g>
  </g>
</svg>